<svg xmlns="http://www.w3.org/2000/svg" width="336" height="158" fill="none" viewBox="0 0 336 158"><path fill="#fff" fill-opacity=".29" d="M85.53 68.912c3.898-1.245 9.647 3.125 12.498 5.43a13.4 13.4 0 0 1 1.783 2.27q.487.786.843 1.61t.591 1.681q.294 1.072.42 2.192c.17 1.493.132 3.047-.058 4.648a27 27 0 0 1-.21 1.453c-.748 3.059-1.584 6.162-1.998 9.277a3.4 3.4 0 0 1-.491-.305h-.001l.092.069c.098.068.218.137.4.237-.66 3.507-1.983 10.894-3.108 14.119v.001l-.313 1.169-.002-.001a79 79 0 0 0-.698 3.332 110 110 0 0 0-.544 3.168c-.33 2.095-.62 4.194-.991 6.525-.61 4.841-1.364 9.263-1.196 14.148.15 4.348 1.22 8.954 1.243 13.131-1.397-3.375-2.438-7.897-2.365-11.567l-.756.588c-.031.729.008.719.243 1.422l-.178.385c-.757-.855-.537-.896-.76-2.248-.226.482-.24 1.828-.279 2.439l.001.004c.078 1.37.433 4.719.154 6.155a3 3 0 0 1-.064.261l-.421.063c-.647-.633-.633-.623-1.07-1.42l-.223-.136a24 24 0 0 1-1.7-1.1c-.548-.395-1.073-.824-1.79-1.441l-.963-3.681c-.323-1.179-.447-1.882-.626-3.094l-.563-2.05c-.828-.638-.98-2.829-1.142-3.909l-.083-.905a32 32 0 0 1-.059-.753 17 17 0 0 1-.027-.651c-.016-1.022.127-1.812.57-3.361q-.118-.184-.218-.336a13 13 0 0 0-.656-.89l-.061-.004-1.224-.061c-.096 2.308.348 3.022-.022 5.072l-.085.429c.29 1.193 1.386 9.474 1.316 10.623l-.392.261c-2.302-1.292-2.106-9.804-2.77-12.4v-.001l-.394-1.281c-.621 1.709-.027 4.358-.545 6.916l-.188.074c-.396-2.406-.15-6.076-.749-8.516-.263-1.073-.248-1.002-.267-2.177l.008-.035q.104-.449.17-.929c.182-1.329.174-2.837.296-4.523q.045-.632.121-1.298c.104-.888.26-1.82.51-2.797l-.007-.506c-.25-1.929.369-4.624.884-6.528l.487-3.366c.685-4.372 2.61-11.07 3.657-15.855.316-1.786.972-3.95.617-5.635l.108-.135-.001-.001-.107.135c-.418.447-.827.95-1.229 1.499-1.206 1.643-2.348 3.684-3.458 5.771-.555 1.044-1.103 2.098-1.646 3.121-.363.682-.723 1.35-1.083 1.99q-.27.48-.54.938c-.36.609-.72 1.184-1.08 1.713-.745 1.089-3.397 5.078-3.72 6.16a50 50 0 0 1-.812 2.354c-.453 1.209-.93 2.325-1.528 3.708l-1.385-2.23v.001l1.385 2.23-.67 1.768-.998 2.344c-1.315 3.513-2.675 7.154-3.87 10.695-1.21 3.593-2.767 15.163-5.128 17.293-1.119.355-1.167.396-2.256.084-.516-.462-.896-.883-1.536-1.139-.405.415-.825 1.087-1.346.934-5.37-1.586-11.912-4.047-12.046-10.353.126-.898.231-1.833.322-2.787.275-2.861.424-5.892.604-8.641l.02-.147q.549-4.28 1.141-8.553c.896-6.642 3.027-14.936 4.352-21.774q.024-.257.054-.473.04-.276.067-.502.015-.135.018-.257a1.3 1.3 0 0 0-.318-.927c-1.948.897-3.406 5.72-5.642 7.918l-2.234 4.151c-1.497 2.831-3.043 5.629-4.294 8.575-.552 1.138-1.161 2.327-1.63 3.495-2.186 4.492-3.46 8.104-5.258 12.687-3.811 9.721-5.006 19.811-8.787 29.522-.723 1.859-2.447 2.711-4.323 2.016-1.602-.606-1.36-3.042-3.003-3.159-.429.603-.412.604-.657 1.308-1.406.187-1.735-.706-2.512-1.757-.817.007-.848.08-1.567.423-1.131-.505-4.567-3.116-5.452-4.026-.15-9.094-.434-19.205.915-28.275l.135-.874c.222-1.861.58-3.864.877-5.727v-.001q.186-.977.367-1.902c.722-3.703 1.38-6.821 2.077-9.838q.174-.754.352-1.503a262 262 0 0 1 1.533-6.114 573 573 0 0 1 1.867-6.928c1.18-3.916 5.758-16.844 8.738-18.677 2.137-.182 2.702 1.67 2.833 3.288.793.42.461-1.369 2.267-1.748 1.864.999 1.15 2.122 1.97 4.02.95-.616 1.22-1.033 2.225-.456.723 1.089.457 2.263.858 3.856l.325.187c.512-1.12.374-1.386 1.206-1.743l.415.5c.425 2.329-1.05 7.923-1.544 10.715l-.014.338a10 10 0 0 1-.023.35c-.03.349-.076.698-.126 1.044-.068.46-.143.914-.197 1.35q-.042.328-.061.641c-.037.626.008 1.204.234 1.7l.706-.767c1.56-1.865 2.117-3.846 3.5-5.865l.288-.404h.001c2.91-3.538 6.13-7.77 9.734-10.537l.148-.089 1.558-.932c1.498-1.168 2.736-1.512 4.302-1.803l1.698-.302c1.968-.123 8.596 3.525 10.336 4.85.425.323.811.986 1.102 1.58l.257.556q.345.3.616.576c.906.925 1.246 1.7 1.554 2.811.123.444.242.942.39 1.524l.362 1.272.097.343.01.036c.227 1.894.455 3.304.328 5.206l.068.006c.704.006 1.408-1.81 1.799-2.62 2.64-5.46 8.747-14.536 13.81-17.958l1.243-.982.27-.223c1.323-1.067 2.328-1.359 3.991-1.845m4.762 63.603c.178 1.286 1.038 7.491 1.127 8.791l-.028-.322c-.172-1.782-.933-7.269-1.1-8.47zM162.309.032c3.021-.314 7.633 1.749 9.912 3.483l-.872.938c.508.494 1.628 1.475 1.982 2.103l.06.121.51.557c.541.586 1.166 1.22 1.762 1.585l1.552-.69c.343 1.696.861 3.747.824 5.474l-.015.341c-.363 3.512-1.568 8.328-3.249 11.481h-.001c-2.871 4.258-6.016 8.12-8.605 12.583-1.943 3.353-5.203 6.736-7.944 9.556-1.999 2.056-4.868 6.308-6.879 7.954v.001q-.726.624-1.439 1.248-1.422 1.248-2.806 2.498c-2.31 2.087-4.571 4.187-6.927 6.325-1.131.984-2.419 1.723-3.694 2.516-2.826 2.704-3.604 5.056-4.224 8.992h.001c1.804-.713 2.416-2.117 4.376-3.467a9 9 0 0 1 .303-.203c.736-.47 1.651-.929 2.857-1.345a20 20 0 0 1 1.718-.51l.652-.156q.138-.028.297-.055c.846-.146 2.103-.27 3.273-.257q.22.003.434.012.43.018.82.067.39.05.719.136.162.043.306.097.143.052.263.117h.001l-.001-.001c.561.056.957.094 1.309.15a6.5 6.5 0 0 1 1.042.255q.19.063.414.146t.49.19h.001c.33.137.752.303 1.167.474s.825.349 1.13.51c1.229.633 1.816.903 2.761 1.642q.202.158.429.349c2.509 1.892 4.673 3.34 6.03 6.286l.395 1.26c.25.8.47 1.525.659 2.231q.143.528.26 1.05.118.524.21 1.063c.185 1.081.292 2.24.315 3.658-.122 2.486-.298 6.388-1.56 8.582-1.16 4.723-2.054 4.695-3.458 8.336-.693-.949-.494-.427-.565-1.643-.175.102-.437.454-.726.899.289-.445.551-.797.726-.898.071 1.216-.128.694.565 1.643-.307 1.536-1.116 2.452-2.148 3.634l-.001-.001c-2.042 3.865-4.306 7.885-7.368 11.036l-.348-.577v.001l-.861 1.155h.001l.86-1.155.348.576-.738 1.07-.001-.001c-4.7 5.882-11.141 12.563-19.271 13.028-1.086.062-2.595.125-3.525-.451l-.522-1.056.036-.004-.037.004a12 12 0 0 1-.852-.045 47 47 0 0 1-.977-.088l-1.872-.198c-2.148-.062-5.988-.805-7.815-2.116l-.041-.048a7 7 0 0 0-.375-.65 5 5 0 0 0-.183-.258 3.4 3.4 0 0 0-.736-.719c-.316-.226-.652-.391-1.04-.614a8 8 0 0 1-1.045-.705c.51-.875.891-.893 1.85-1.452-.035-.114-.12-.356-.242-.692a217 217 0 0 0-1.994-5.161c-.548-1.369-1.062-2.606-1.363-3.226a3 3 0 0 0-.198-.368l-.042-.046q.002.225.009.443c.016.503.056.975.106 1.433.052.467.115.919.186 1.372.12.767.256 1.535.368 2.384q.056.424.102.879l-.002-.003.001.003-.181-.382a22 22 0 0 1-.503-1.168 26 26 0 0 1-.826-2.424 30 30 0 0 1-.426-1.673 33 33 0 0 1-.336-1.711c-.342-2.015-.516-4.093-.575-6.187a63 63 0 0 1-.012-2.971c.067-3.805.423-7.59.747-11.07.351-3.4 2.103-10.94 1.863-13.866l-.369-.465-1.126.234-2.92-1.31c.894-.827 1.394-1.196 2.017-2.258l-1.559.399-.304-.196c1.366-1.837 5.843-4.579 6.403-5.573 1.582-2.812 2.773-8.214 3.991-11.504 2.863-7.729 6.236-15.23 9.24-22.83l.863-1.572q.107-.228.256-.526c1.485-2.979 5.928-10.889 7.325-12.777l.611-.783c1.544-2.44 2.644-4.209 3.731-5.817.247-.366.492-.725.743-1.08 1.185-1.678 2.471-3.304 4.393-5.51q.411-.47.865-.982l.511-.548.517-.543c3.706-3.846 11.646-9.882 17.231-9.975M129.134 134.76a5 5 0 0 0-.635.085l.321-.053q.157-.02.314-.032m7.519-2h.001zm-57.311-.666v.001zm-.197-1.034.02.067a3 3 0 0 0-.086-.237zm11.126-2.313a25 25 0 0 0-.028 1.006l.001-.001c.005-.5.021-1.008.057-1.505zm52.385 1.102q-.34.311-.633.547c.346-.279.75-.645 1.186-1.068zm-53.165.541.001.003q.035-.19.058-.386zm50.966-1.733c.073.056.145.068.304.08l.589.052c-.633-.074-.762-.031-.893-.132m2.722-1.3c-.438.451-.799.807-1.04 1.014h-.001l-.022.314.022-.313q.121-.104.28-.255a36 36 0 0 0 .761-.76m58.349-79.622c7.612-1.118 16.234 2.54 22.275 6.955 4.228 3.089 5.278 5.145 6.254 10.12-.026.092-.05.2-.076.31.026-.11.05-.218.076-.31l.099.383q.066.247.138.475c.191.607.407 1.116.629 1.571.332.683.675 1.247.959 1.849.236.5.431 1.028.545 1.672q.046.264.087.527.084.525.148 1.05a32 32 0 0 1 .232 3.635 32 32 0 0 1-.048 2.053q-.055 1.021-.168 2.034a41 41 0 0 1-.654 4.02 52 52 0 0 1-1.007 3.962 63 63 0 0 1-.61 1.96 82 82 0 0 1-.669 1.95q-.347.97-.715 1.937-.554 1.45-1.139 2.888c-.78 1.918-1.591 3.823-2.388 5.719-.933 2.22-1.775 4.759-2.709 7.114-.34.857-.691 1.689-1.064 2.473a24 24 0 0 1-.284.578 53 53 0 0 1-1.179 1.673c-.251.338-.499.664-.76.995-.392.496-.81 1.005-1.301 1.588l-.574.662a52 52 0 0 1-2.773 2.886c-.387.377-.79.765-1.221 1.179l-1.559 1.527a89 89 0 0 0-1.536 1.542l-1.208.76-.775.475c-.784.481-1.592.959-2.424 1.259v.001c-4.262 1.743-7.476 1.641-11.985.725-3.088-1.127-5.076-1.891-8.326-2.493-.957-.251-1.674-.459-2.331-.694-.847-.304-1.593-.658-2.62-1.228q-.188-.102-.391-.217c-4.288-2.404-6.603-4.565-9.132-8.963-4.539-7.891-2.211-24.556.247-33.21q.116-.301.238-.604l.188-.464c.558-1.365 1.167-2.737 1.763-4.087l.361-.82v-.002a42 42 0 0 1 1.69-3.504c.512-1.244 1.166-2.188 1.887-3.31.687-1.149 1.292-2.314 1.92-3.496.876-1.653 2.172-3.628 3.675-5.592q.377-.492.768-.98a52 52 0 0 1 1.616-1.917q.622-.702 1.258-1.364c1.552-1.615 3.143-3.011 4.609-3.934 2.179-1.425 4.734-2.5 7.346-3.007q.653-.127 1.309-.205a17 17 0 0 1 1.309-.106M77.444 128.017h.001m217.559-92.393q.184 0 .376.05.191.05.388.156c.126.306.21.514.262.678q.038.121.055.22.017.098.015.192 0 .094-.015.204a7 7 0 0 1-.041.256c-.034.197-.079.455-.124.828 1.012-.653 1.521-1.103 2.708-1.29 1.184.348.786.185 1.72 1.193.4.109.727.219 1.076.291.209.044.426.074.672.082h-.001c.324.295 1.118.967 1.333 1.282.242.25.444.444.632.604.564.478 1 .638 1.982.987q.031.05.06.106.03.054.056.116c.142.326.231.774.276 1.312q.018.203.027.42c.158 3.78-1.412 11.053-2.009 13.215-1.235 5.815-2.557 13.404-4.301 18.932h-.001.002c-.396 1.849-.83 4.208-1.372 5.974l-.309 1.787a45 45 0 0 0-.274 1.787l-.001-.001c-1.078 5.401-2.023 10.003-2.885 15.246l-.364 2.29c-.11 1.478-.212 3.681-.42 5.09-.092 1.078-.193 2.358-.322 3.681q-.065.663-.14 1.332c-.2 1.781-.463 3.545-.835 4.92l-.048.211c-.45 2.269.423 7.078-.335 7.874-1.122-1.27-1.599-7.499-1.028-9.009l.048-.718a7 7 0 0 0-.093-1.863c-.18.174-.405.743-.622 1.423a30 30 0 0 0-.692 2.647 7 7 0 0 0-.069.375c.028.208.045.462.055.75.01.287.013.609.01.956-.003.346-.012.717-.025 1.101-.066 1.921-.233 4.182-.278 5.485.046.275.09.468.11.635.013.112.015.212 0 .319q-.011.079-.038.167c-.034.117-.09.248-.173.411l-.534-.192c-.507-.6-.783-.945-.995-1.327-.212-.381-.36-.8-.611-1.547l-.615-.035-.016-1.655c.235-.708.458-1.633.66-2.37v-.003l-.154-1.343-.327-.26q.039-.176.07-.341v-.001a11 11 0 0 1-.07.342l-.346.276c.039 1.085.045 2.662.167 3.7l.015 1.655c-.479.472-.69 1.663-.967 2.448l-.292.02c-.97-1.253-2.999-7.796-3.3-9.518l-.033-.48v-.001c-.232-.925-.441-1.553-.759-2.455-.347.469-.527 1.337-.624 2.402q-.028.32-.049.661c-.026.455-.042.934-.052 1.426-.011.492-.016.995-.02 1.498-.013 1.509-.024 3.011-.174 4.156l-.001-.002v.002c-.128-.362-.285-.792-.452-1.25-.191-.526-.395-1.091-.586-1.64a34 34 0 0 1-.494-1.513l-.146-.533-.558-.628h-.001l-.193-.581a4 4 0 0 1-.148-.612l-.009-.054c-.081-.667.218-.986.989-1.897l-.404-.315a2 2 0 0 1-.202.024c-.136.006-.127-.051-.471-.226l-.048-.109c-.154-.353-.28-.84-.383-1.429a15 15 0 0 1-.091-.595c-.586-4.293-.212-12.606.187-16.156l.097-.765c-1.093 1.412-1.996 2.998-2.956 4.338l-.415.559c-1.009 1.613-1.83 2.642-3.026 4.136l-.001-.001c-2.175 2.593-2.839 3.856-4.675 6.364l.001.001-2.339 2.984c-1.241 1.33-4.746 5.135-6.169 5.983-2.358 2.294-3.9 3.774-6.851 4.226q-.329.051-.681.084-.527.05-1.118.061c-.756.027-3.084.15-3.691-.1-13.203-5.434-19.075-8.434-15.448-23.814v-.001c.365-1.451 1.52-4.614 2.918-6.801q.1-.156.201-.306c.609-.895 1.258-1.587 1.903-1.864l.215-.076h.001l.387.38-.173 1.689c.717-.742 1.265-1.498 2.217-1.769.384.43 1.306 1.702 1.685 1.758.743.11.631.012 1.208.46 2.624.946 2.223 1.336 3.296 3.938q.127.001.233-.01.106-.012.194-.033c.352-.085.504-.276.627-.427.082-.1.151-.184.258-.206a.3.3 0 0 1 .088-.004c.096.008.221.056.395.163.212 1.487-.886 5.106-1.33 6.705h-.001l.001.001-.188.957c-.195.976-.421 2.154-.469 2.86l-.006 3.162c.673-.416 1.418-1.026 2.184-1.732q.416-.383.837-.799a70 70 0 0 0 2.843-3.018c.611-.68 1.172-1.32 1.651-1.854l.001-.001 1.22-1.372c3.222-4.27 5.61-7.79 8.574-12.13l1.461-2.383c-5.315-1.474-14.82-5.267-17.225-10.217-5.764-11.868 6.642-32.676 16.412-37.892 3.781-2.646 7.227-4.019 11.486-4.005a21 21 0 0 1 1.879.092c6.446 1.263 9.326 3.993 14.01 8.175.461-1.379 1.452-4.056 1.779-5.354.468-1.285 1.674-4.18 3.305-4.377zM41.219 126.108l.14.45.362.077v.001l.04-.778zm48.745-.097v.001zm.273-.377h.001m.718-.463q-.27.104-.473.251l.144-.093q.149-.088.328-.157zm56.735-22.095c-.988 1.285-1.709 2.34-2.655 3.803-1.316 2.013-3.081 4.404-4.256 6.337h-.001c-1.582 3.145-6.452 7.353-8.68 10.195l-.834.796 1.054.809 1.009-.668.084-.162c.902-1.63 2.981-2.031 4.845-4.519l.238-.401c1.249-2.045 3.346-4.707 4.755-6.557.577-1.897 4.433-6.576 5.189-9.71l-.306-.49zm.725-22.939c-2.043 1.675-4.28 2.9-6.24 4.708-4.717 4.35-8.454 9.29-11 15.202-.474 1.1-2.73 6.132-3.506 6.512-.325-.542-.208-.242-.129-1.01l-.409-1.111-.453.999v.001l-.083.661a47 47 0 0 1-.303 1.94c-.296 1.699-.644 3.349-.908 5.058q-.151.96-.255 1.954l-.013.137-.049.531h.001a69 69 0 0 0 .533 5.222l.244 1.23c.157.067.554.257.701.28l.07.221 1.673 1.599h.001l-1.674-1.599-.069-.221c1.021-1.133 2.078-1.811 3.316-2.693l.561-.58c2.839-3.015 6.23-7.81 8.887-11.003h.001c.276-.572 2.019-2.901 2.493-3.558.663-1.48 1.402-3.028 2.137-4.584q.41-.866.812-1.733c.801-1.73 1.557-3.445 2.154-5.067l.049-.13v-.002c1.294-3.971 2.406-8.529 1.725-12.721l-.071-.406zm-13.145 37.641c-.499.453-1.013.903-1.507 1.383q-.249.24-.489.491c-.399.42-.777.868-1.115 1.364a9 9 0 0 0-.562.95c-.915.368-1.425.616-2.389.785v.001a7 7 0 0 0 1.214-.318c.181-.064.361-.135.552-.213s.396-.163.624-.255c.907-1.794 2.341-2.979 3.672-4.188M2.35 120.753c-.091.806-.159 1.333-.17 1.938l.014-.356c.026-.471.084-.937.157-1.581zm147.062-.296v.001zm-7.512-.478c.225.015.461.048.714.108l-.001-.001a4.5 4.5 0 0 0-.713-.107m-2.379.089v.001zm4.991-1.985a1.5 1.5 0 0 0 .033.478h.001a2 2 0 0 1-.037-.263 1 1 0 0 1 .004-.215zm10.225-3.042a29 29 0 0 1-1.87 3.155l.406-.612a30 30 0 0 0 1.797-3.213zm64.81-53.4c-3.738-5.895-5.407-6.498-12.049-3.925-.625.368-1.206.712-1.759 1.045-.509.308-.995.606-1.466.912l-.277.182c-.495.328-.977.665-1.459 1.027a28 28 0 0 0-1.681 1.367q-.46.405-.941.863l-.735.836c-2.018 2.243-3.17 4.303-4.794 6.814 1.121 3.808.223 6.167-1.649 9.607l-.148.264q-.106.357-.205.787c-.16.68-.311 1.486-.454 2.363a122 122 0 0 0-.348 2.285c-.161 1.11-.321 2.25-.487 3.332a53 53 0 0 1-.518 2.926c-.238 2.072-.351 3.493-.938 5.485l-.917 4.751c.063 1.829.081 3.977.253 5.774l.426 2.289.372 1.148.37 1.1c.385 1.148.814 2.398 1.276 3.361l1.449 1.775 1.042-.005c2.318-1.234 3.571-2.657 5.511-4.307 7.981-6.795 12.626-14.137 17.754-23.023 1.154-3.042.316-2.062 2.402-5.432-.931-2.009.413-3.815 1.252-5.872-.809-.342-.765-.298-1.285-1.002-.241-1.383.142-14.325.532-15.89zM2.341 117.763v-.002l-.147-.296zm.475-1.02.001.001zm135.411-2.957a6.5 6.5 0 0 1-.919 1.814 10 10 0 0 1-.838 1.018l.222-.244c.656-.742 1.205-1.567 1.535-2.588M3.8 115.333a2 2 0 0 0-.147.117q.121-.106.262-.191-.06.035-.115.074m88.438-.244-.01-.004-.04-.013zm-87.775-1.027v.001zm145.606-.136c-.041-.125-.07-.214-.096-.284.026.07.055.159.096.284M4.641 111.813c-.023.7.002 1.296-.094 1.869l.028-.192c.064-.515.049-1.055.07-1.678zm144.553-1.101c-.41 1.096-.594 1.383-.603 2.522l.011-.391c.047-.832.233-1.172.592-2.131.133-.355.261-.744.403-1.135-.142.391-.271.78-.403 1.135m7.11.784v.001zm-76.623 1.348.006.003zm-.353-.092-.125-.014h-.001q.065.005.126.014m59.489-1.962-.682 1.546zl.322-.421q-.144.184-.322.42m-95.063-.02c-.06.518-.235 1.058-.34 1.534l-.515-.629.515.63c.105-.477.28-1.017.34-1.535m96.401.337c.162.366.272.607.353.821l-.092-.227a45 45 0 0 0-.261-.594m12.036-.437c-.317.171-1.073.651-1.448.731v.001a2 2 0 0 0 .396-.15c.376-.18.825-.46 1.052-.582m111.062.564-.079.025c.129-.043.227-.077.304-.106zm-123.533-.695v.001zm-.134-.775.001.001zm17.973-6.566c-1.806 2.513-2.327 2.972-3.068 5.919-.022.055-.08.193-.132.328l.133-.328.137-.525c.135-.497.265-.917.401-1.29.227-.62.469-1.109.772-1.604.424-.693.967-1.4 1.757-2.499zm-6.82 4.247v.001zm1.34-.702h.002l-.693-.381zm78.63-29.211c-2.425.96-2.762 8.002-4.657 10.581-.42.192-1.523.7-1.684 1.014-.506.996-1.789 6.522-1.732 7.376l.866.116.157.286c-.459 1.122-2.308 3.542-3.383 5.071q.055.092.106.186c1.035-.793 1.527-1.542 2.906-2.052.187.799-1.37 3.348-1.84 4.215l-.64.769c2.586-.832 5.724-6.134 6.509-8.616 1.464-4.615 4.175-10.707 3.172-15.512-.271-1.298-1.5-1.538-.19-3.025l.514.51.313-.115.071-.727zM93.552 104.13q-.095.123-.233.29h.001q.138-.168.232-.29m60.229.348.094.03c-.092-.032-.172-.059-.227-.087zm116.888-2.47c-.268.269-1.083 1.137-1.339 1.306l-.536-.103.535.103-.568.799.569-.798c.256-.169 1.071-1.038 1.339-1.307v-.001zm-142.534 1.381h.001zm85.353-1.085c.134.042.279.136.55.325h.001a10 10 0 0 0-.234-.16 1.3 1.3 0 0 0-.317-.165m-89.19.361v.001zm3.624.042v.001q.046.078.083.161v-.001a2 2 0 0 0-.083-.161m-64.779-1.875a.77.77 0 0 0-.018.397l-.001-.013a.8.8 0 0 1 .02-.385zm95.127.009a1 1 0 0 1 .065-.129zm115.96-.128q.035.048.062.095za1 1 0 0 0-.079-.102zm-11.412-.411a.3.3 0 0 1 .097-.005c.046.007.095.038.154.118a.3.3 0 0 0-.11-.103q-.053-.024-.098-.017-.022.002-.043.007m-199.28.069-.009.006zq.066-.046.125-.094-.059.048-.125.094m199.09-.159c.045.087.088.102.135.099-.047.003-.09-.013-.135-.099m-198.693-.171-.061.057q.12-.113.221-.236zm198.491-.681-.512-.64zm-1.616-.206q-.032.028-.062.058.03-.03.062-.057.064-.053.135-.1zm-196.043-.346v.001h.001m33.745-2.047-.29-.33zm124.333-20.73c.604 3.581 1.716 8.182-1.691 10.467-.351.899-.536 2.927-.715 3.27-1.309 2.5-1.255 4.305-1.77 6.951.271.06.375.129.601.07 2.872-5.195 5.957-13.026 4.767-19.025l.715-.77-.205-.308c-1.149-.198-.956.007-1.702-.654m53.259 15.8c-1.025 1.756-2.402 4.06-3.343 4.805l.001.001c1.255-.994 3.284-4.759 4.221-6.3zM128.22 96.328l.001.002zm4.535-3.594-.004.004h.001q.108-.103.206-.204-.097.1-.203.2m-2.662-.329a7 7 0 0 0-.222.249zq.116-.126.251-.26zm-52.419-5.168c-.19.467-.389.82-.503 1.148.057-.164.135-.334.222-.521.088-.187.186-.392.28-.626zm56.26.599c-.238.345-.464.689-.669 1.027l.001-.001q.31-.507.668-1.025zm-98.628-.15h.002zm3.915-.638a6 6 0 0 0-.011.237l-.003.347.157.017v-.002l-.156-.015a6 6 0 0 1 .014-.584m-4.706.539q.204-.026.367-.01a1.7 1.7 0 0 0-.367.01m104.072-5.972c-.875.796-1.955 1.715-2.724 2.589l.343.59c-.606.797-1.283 1.66-1.905 2.524l.171-.233c.45-.616.922-1.23 1.371-1.815l.363-.476-.342-.59c.769-.873 1.848-1.793 2.723-2.589m-6.304 3.839c.421.325.793.606 1.05.95l-.117-.144c-.33-.376-.798-.688-1.304-1.1zm3.307-.963c-.162.17-.346.36-.537.558zM41.63 83.429a7 7 0 0 1 .15-.32zm32.167.227c-.27.278-.521.547-.748.836l.141-.174c.189-.224.392-.44.607-.662m8.58-.308c-.103.296-.164.379-.18.449q-.002.016-.002.034c.001-.083.062-.139.182-.482l.13.16zm.547-1.37a11 11 0 0 0-.2.687c-.066.248-.133.522-.217.843.084-.32.152-.595.216-.842a8 8 0 0 1 .2-.688m-40.073.03c-.234.085-.474.25-.97.503.495-.252.736-.418.97-.503m40.757-1.463v-.001c-.174.29-.307.54-.417.771q.048-.097.102-.2l.083-.163zv-.001M280.45 46.846c-.488.19-.844.328-1.157.467-.523.232-.93.467-1.643.958a41 41 0 0 0-2.476 1.936q-.552.468-1.06.94a40 40 0 0 0-2.425 2.456c-.8.876-1.623 1.83-2.567 2.925h-.002a142 142 0 0 0-3.319 5.003c-.832 1.77-1.796 3.675-2.474 5.558q-.236.651-.419 1.297c-1.256 4.556-1.286 6.54-.837 11.292 4.788-1.413 6.524-1.871 10.112-5.445.637-.994 1.729-2.392 2.461-3.382 5.884-7.311 5.767-7.817 6.955-16.735l.081-6.262c-.417-.658-.545-.648-1.23-1.008M225.97 78.07q-.015.252.038.538c.315.38.55.698.91 1.037-.36-.34-.595-.656-.91-1.037a2.3 2.3 0 0 1-.038-.538M78.125 76.111c-.224.052-.45.101-.67.16.33-.087.673-.157 1.005-.24zm153.363-1.959.141-.206c.013.246.037.481.058.707.033.339.06.656.038.956h.001c.036-.5-.064-1.048-.097-1.663v-.001zM79.794 75.47a2 2 0 0 1 .118-.1zm5.332-1.97a.6.6 0 0 1-.017.138v.001a1.6 1.6 0 0 0 .019-.344v-.001c0 .073 0 .146-.002.207m145.324.386v-.002zm-8.879-3.183c.117.733-.023 1.494-.087 2.386l-.203.286.001.002.202-.288c.064-.892.204-1.653.087-2.386m8.415-1.177.211.744c.215.764.466 1.55.988 2.028v-.001c-.695-.638-.909-1.82-1.198-2.77zm-4.015-1.044q.181.076.432.133l-.233-.062a2 2 0 0 1-.199-.07m-37.878-9.851.508.066v-.001zm-1.836-1.137h-.001zm-46.797-.689a4 4 0 0 0-.178-.13zm.371-.807a1 1 0 0 1 .025-.166zm.182-.551a3 3 0 0 0-.099.21q.025-.058.058-.123zm27.148-45.822-.597.26-.158.132-2.129 1.777-.972.854c-.837.736-1.717 1.523-2.443 2.299q-.219.232-.416.462c-1.241 1.578-2.485 2.993-3.759 4.525-2.663 4.026-15.637 26.091-15.147 29.78l.439.19 1.726.74c-.931 1.094-1.718 2.006-2.994 2.741l.581.25.185-.087.867.43h.001-.001l-.866-.43c.53-.336 1.992-.942 2.432-1.37 2.231-2.172 7.561-6.99 8.936-9.436.285.533.47.88.679 1.103q.052.055.108.101h.001c-.258-.214-.454-.582-.788-1.204l1.021-1.44c1.512-2.05 3.577-3.525 5.029-5.735 1.533-2.336 4.115-5.46 5.383-7.832 1.759-3.293 3.095-5.98 5.05-9.2l-.473-.266-1.645.738h-.002c-1.393 2.494-2.793 5.01-4.373 7.396-.75 1.137-1.855 2.21-2.551 3.267h.001c-.863 1.868-1.658 3.464-2.804 5.182-.726 1.09-1.646 1.97-2.199 3.03l-.219.436c-1.107 2.096-2.417 2.885-4.459 4.352-1.419 3.98-1.764 2.445-5.072 5.086-.364.29-1.514 2.335-1.827 2.888l-1.726-.74c1.138-.68 8.648-9.977 10.285-11.762l1.07-1.185c2.332-2.635 3.624-4.44 5.983-7.366 1.628-2.041 5.478-7.95 6.115-10.448h.001c.117-1.284 1.61-4.322 2.133-6.553l.113-.81c.118-.829.196-1.682-.286-2.256zm6.585 9.604c-.62 2.021-1.206 4.34-2.776 5.262-.643.933-.406.535-.679 1.426-1.44 4.648-5.125 8.255-7.681 12.132-.604 1.097-.813 1.496-1.619 2.44-1.393 1.9-4.193 5.426-5.898 7.052-.23-1.327-.402-1.734.408-2.848l-.143-.484h-.001l.143.484c-.809 1.114-.637 1.52-.407 2.848-1.214.425-1.328.613-2.146 1.626h-.001c-.669 1.923-1.922 1.438-3.195 5.17l1.247-.192.157-.238c1.741-2.535 6.861-7.38 8.74-9.495 3.301-3.718 13.186-17.059 13.376-21.164.185.492.297.866.451 1.177l-.063-.137a5 5 0 0 1-.12-.301c-.079-.214-.161-.457-.267-.738l-.11-.408c.821-1.154 1.411-3.016 1.432-4.421l-.578-.034h-.001q-.138.408-.269.843m95.337 32.416c-.865.576-1.366.76-1.614 1.658l-.047.19c.229-1.064.738-1.233 1.661-1.847l.139.13zm-115.07-7.502q.149.041.339.059a1.6 1.6 0 0 1-.478-.109zm-14.317-1.375h-.001q-.158.239-.3.47l.3-.469.538.277h.001zm-10.317-1.717q-.137.31-.282.659l-.095.226.096-.226q.145-.35.282-.659.092-.209.183-.404-.09.194-.184.404m.533-1.13-.107.222q.185-.378.375-.737zm11.353-.72a34 34 0 0 0 .311-.597zm17.133-.747c-.212.525-.703.918-1.175 1.45.472-.532.963-.925 1.175-1.45m.077-.252.023-.135h-.002a1 1 0 0 1-.021.135m5.809-4.914a29 29 0 0 1-.611 1.138q-.109.19-.221.377c-.6.999-1.287 1.925-2.044 2.487 1.136-.842 2.114-2.505 2.876-4.002m.479-1.85.209.444-.208-.445-.306-.1zm1.403-3.907c.021.254-.02.51-.101.765a3 3 0 0 1-.079.217c-.118.29-.281.576-.461.853.382-.588.692-1.217.641-1.835m-29.138 1.207-.03.02q.054-.035.107-.077zm-1.302-.934.064.072a1 1 0 0 1-.114-.142zm.554-1.667c-.345.201-.631.425-.795.655l.001-.001q.1-.138.251-.27c.151-.134.336-.263.543-.384m11.776.515.001-.001zm1.358-.419c.093.038.198.079.32.107h.001a2 2 0 0 1-.32-.107zm-11.75-.696a7 7 0 0 0-.237.08za7 7 0 0 1 .232-.07zm12.122-4.427c-.133.082-.11.16-.339.661l.063.36h.001l-.063-.36c.229-.501.205-.58.339-.661zm1.501-1.386c-.095.495.073.818.131 1.14-.058-.322-.226-.645-.131-1.14m.297-.745a3 3 0 0 0-.142.275zq.152-.026.274-.038zm19.441-8.488v-.001"/><path fill="#fff" fill-opacity=".28" d="M329.748 27c-.391.918-1.501 2.851-2.04 3.9l.052.43.574-.687c.408-.78 1.377-1.88 2.21-1.585a1 1 0 0 1 .164.079c.485 1.346-.996 3.178-1.695 4.08-.546.868-1.693 2.455-2.085 3.252l.058.197.266.13c-.273.338-.671.723-.731 1.16.361.33 2.2.247 2.811.327 1.949.257 3.861.57 5.597 1.756-.908-.114-1.642-.199-2.542-.438-.234-.03-.299-.058-.356-.048.057-.01.122.018.355.048l-.027.452h.001c1.392.506 1.219.631 2.792.643l-1.657 1.878c-.305-.056-9.386.526-9.307.482l-.035.177c.933 1.216 1.647 2.155 2.482 3.465 1.016 1.426 3.02 3.293 3.322 4.95l-.097.306c-.396.154-.608.021-1.034-.114l-.374.211a4.4 4.4 0 0 1-.624-.439l-.157.07-.124.519c-.478.069-4.76-4.597-5.499-5.353l-.075.467c-1.996-3.438-2.34-2.195-2.807 0-.608.442-1.028 4.025-2.175 5.477q-.201.357-.408.709c-.383.65-.937 1.623-1.641.96-.186-.666-.095-1.193-.044-1.902l-.071-.074q-.218.295-.442.585c-.383.493-.485.66-1.023.678l-.148-.288c.089-1.908.153-3.735.697-5.524.283-.942 1.29-3.615 1.849-4.37a3 3 0 0 0-.489-.024l.001.005-.206.035a6 6 0 0 0-.291-.023c-1.228.068-3.09.3-3.719.307-.917.225-2.086-.339-2.885-.852-.589-.38-.191-1.258-1.051-2.271l-.12-.14c1.406-.284 2.935-.937 4.362-1.244 1.598-.344 3.263-.45 4.886-.627-.763-1.311-2.063-2.527-2.61-3.832-.679-1.618-2.646-4.634-2.503-6.424 1.867.744 1.894-1.84 2.776-.828.772.682 5.891 7.81 6.391 8.113.771.467 1.512.123 3.125-2.144l.335-.48a67 67 0 0 1 3.612-4c.756-.768 1.484-1.458 2.064-1.91q.164-.126.31-.227m-14.815 21.054.017-.006q-.007-.008-.012-.017zm2.287-2.72c-.599-.126.341.214-.637 0a1.2 1.2 0 0 0-.252.187c.042.076.082.157.118.26h-.001c.306.066.491.06.618.025.089-.173.149-.332.154-.471m-5.236-2.463c.18-.003.363.022.578.037l-.169.105.17-.105c-.216-.015-.399-.04-.579-.037m16.857-11.857c-.4.344-.619.448-.762.99h.001a1.4 1.4 0 0 1 .198-.46c.134-.194.313-.315.563-.53"/></svg>